# xmcd
#
# Track frame offsets:
#	150
#	10745
#	21294
#	33632
#	46182
#	58082
#	69787
#	79747
#	92052
#	107032
#	117695
#	128592
#	140955
#	150912
#	163190
#	175062
#
# Disc length: 2486 seconds
#
# Revision: 0
# Processed by: cddbd v1.5.2PL0 Copyright (c) Steve Scherf et al.
# Submitted via: EasyCDDAExtractor 15.3.0.1
#
DISCID=d009b410
DTITLE=Lightnin' Hopkins - Maestros del Jazz y del Blues nº 74
DYEAR=1900
DGENRE=Blues
TTITLE0=Nothin' but the blues
TTITLE1=My little Kewpie Doll
TTITLE2=Evil hearted woman
TTITLE3=Life I used to live
TTITLE4=Don't think 'cause you're pretty
TTITLE5=Lightnin' stomp
TTITLE6=Sick feelin' blues
TTITLE7=Lonesome in your home
TTITLE8=Lightnin' don't feel well
TTITLE9=Flash lightnin'
TTITLE10=Blues for my cookie
TTITLE11=My baby's gone
TTITLE12=Hopkins' sky hop
TTITLE13=Sittin' down thinkin'
TTITLE14=Shine on moon
TTITLE15=Lightnin' boogie
EXTD=
EXTT0=
EXTT1=
EXTT2=
EXTT3=
EXTT4=
EXTT5=
EXTT6=
EXTT7=
EXTT8=
EXTT9=
EXTT10=
EXTT11=
EXTT12=
EXTT13=
EXTT14=
EXTT15=
PLAYORDER=
